# Blender 5.2.0 LTS
# www.blender.org
mtllib grass_blade_plane.mtl
o Plane
v -0.061063 -0.002203 -0.000000
v 0.061063 -0.002203 -0.000000
v -0.051535 0.462199 0.000000
v 0.051535 0.462199 0.000000
v -0.013905 1.006549 0.000000
v 0.013905 1.006549 0.000000
v -0.061063 0.210000 0.000000
v 0.061063 0.210000 0.000000
v -0.034437 0.787746 -0.000000
v 0.034437 0.787746 -0.000000
v 0.000594 1.098063 0.000000
vn -0.7730 -0.0000 0.6345
vn 0.7730 -0.0000 0.6345
vn -0.4711 -0.0000 0.8821
vn 0.4711 -0.0000 0.8821
vn -0.0977 -0.0000 0.9952
vn 0.7730 0.0002 0.6345
vn -0.4711 0.0001 0.8821
vt 0.000000 0.192865
vt 0.385730 0.192865
vt 0.355637 0.422082
vt 0.030093 0.422082
vt 0.084096 0.717962
vt 0.301634 0.717962
vt 0.236783 0.916826
vt 0.148947 0.916826
vt 0.000000 0.000000
vt 0.385730 0.000000
vt 0.194743 1.000000
s 0
f 7/1/1 8/2/2 4/3/2 3/4/1
f 9/5/3 10/6/4 6/7/5 5/8/5
f 1/9/1 2/10/6 8/2/2 7/1/1
f 3/4/1 4/3/2 10/6/4 9/5/7
f 11/11/5 5/8/5 6/7/5
