# Blender 5.2.0 LTS
# www.blender.org
o Plane
v -0.061063 -0.002203 -0.000000
v 0.061063 -0.002203 -0.000000
v -0.051535 0.462199 0.000000
v 0.051535 0.462199 0.000000
v -0.013905 1.006549 0.000000
v 0.013905 1.006549 0.000000
v -0.061063 0.210000 0.000000
v 0.061063 0.210000 0.000000
v -0.034437 0.787746 -0.000000
v 0.034437 0.787746 -0.000000
v 0.000594 1.098063 0.000000
vn -0.7991 0.0205 0.6009
vn 0.7750 -0.0144 0.6317
vn 0.7750 -0.0143 0.6317
vn -0.0000 -0.0000 1.0000
vt 0.000000 0.192865
vt 0.385730 0.192865
vt 0.355637 0.422082
vt 0.084096 0.717962
vt 0.301634 0.717962
vt 0.236783 0.916826
vt 0.000000 0.000000
vt 0.385730 0.000000
vt 0.030093 0.422082
vt 0.194743 1.000000
vt 0.148947 0.916826
s 0
f 7/1/1 8/2/2 4/3/3
f 9/4/1 10/5/2 6/6/3
f 1/7/1 2/8/3 8/2/2
f 3/9/1 10/5/3 9/4/1
f 11/10/4 5/11/1 6/6/3
f 8/2/3 7/1/1 1/7/1
f 4/3/2 3/9/1 7/1/1
f 10/5/3 3/9/1 4/3/2
f 6/6/2 5/11/1 9/4/1
