# Blender 5.2.0 LTS
# www.blender.org
mtllib grass_blade_plane_low_poly.mtl
o Plane
v -0.061063 -0.002203 -0.000000
v 0.061063 -0.002203 -0.000000
v -0.045368 0.561923 -0.000000
v 0.045368 0.561923 -0.000000
v -0.013905 1.006549 0.000000
v 0.013905 1.006549 0.000000
vn -0.6342 -0.0000 0.7732
vn 0.6342 -0.0000 0.7732
vn -0.0977 -0.0000 0.9952
vn -0.7730 -0.0000 0.6345
vn 0.7730 0.0002 0.6345
vt 0.054068 0.559232
vt 0.366655 0.559232
vt 0.258264 1.000000
vt 0.162460 1.000000
vt 0.000000 0.000000
vt 0.420724 0.000000
s 0
f 3/1/1 4/2/2 6/3/3 5/4/3
f 1/5/4 2/6/5 4/2/2 3/1/1
